<?xml version="1.0" encoding="UTF-8"?>
<svg id="Capa_1" xmlns="http://www.w3.org/2000/svg" version="1.1" viewBox="0 0 1920 1080">
  <!-- Generator: Adobe Illustrator 29.8.4, SVG Export Plug-In . SVG Version: 2.1.1 Build 6)  -->
  <defs>
    <style>
      .st0 {
        fill: #be5629;
      }
    </style>
  </defs>
  <path class="st0" d="M527.33,496.44c-2.08-7.59-2.83-14.79-2.24-21.62.59-6.82,2.3-12.99,5.15-18.5,2.85-5.51,6.73-10.21,11.66-14.1,4.92-3.88,10.68-6.78,17.28-8.67,5.06-1.35,9.94-2.03,14.64-2.03,6.69,0,12.74,1.15,18.16,3.46s9.62,5.35,12.6,9.15c1.72,2.17,2.94,4.34,3.66,6.51.72,2.17.93,4.16.61,5.96-.32,1.81-1.13,3.34-2.44,4.61-1.31,1.27-3.14,2.12-5.49,2.57-2.71.54-5.13.23-7.25-.95-2.12-1.17-4.09-2.82-5.9-4.95-1.81-2.12-3.52-4.49-5.15-7.12-1.63-2.62-3.32-5.06-5.08-7.32-1.76-2.26-3.68-4.18-5.76-5.76-2.08-1.58-4.47-2.37-7.18-2.37-1.08,0-2.44.23-4.07.68-3.52,1.08-6.49,3.16-8.88,6.23-2.39,3.07-4.16,6.82-5.28,11.25-1.13,4.43-1.63,9.35-1.49,14.77.14,5.42.97,10.98,2.51,16.67,1.54,5.51,3.52,10.46,5.96,14.84,2.44,4.38,5.24,8.11,8.4,11.18,3.16,3.07,6.59,5.42,10.3,7.05,3.7,1.63,7.59,2.44,11.66,2.44,3.52,0,6.93-.56,10.23-1.69,3.3-1.13,6.32-2.71,9.08-4.74,2.76-2.03,5.17-4.43,7.25-7.18,2.08-2.76,3.7-5.8,4.88-9.15l2.71.81c-1.45,5.42-3.61,10.37-6.51,14.84-2.89,4.47-6.35,8.34-10.37,11.59-4.02,3.25-8.52,5.78-13.49,7.59-4.97,1.81-10.26,2.71-15.86,2.71-5.15,0-10.05-.88-14.7-2.64-4.66-1.76-8.9-4.31-12.74-7.66-3.84-3.34-7.21-7.41-10.1-12.2-2.89-4.79-5.15-10.21-6.78-16.26"/>
  <path class="st0" d="M654.57,524.23c-3.44,2.62-6.96,4.66-10.57,6.1-3.61,1.45-7.05,2.17-10.3,2.17-4.43,0-8.06-1.26-10.91-3.79-2.85-2.53-4.27-5.83-4.27-9.89,0-2.98.86-5.96,2.57-8.95,1.72-2.98,4.16-5.78,7.32-8.4,3.16-2.62,6.96-5.04,11.39-7.25,4.43-2.21,9.35-4.13,14.77-5.76-.09-3.79-.34-7.23-.75-10.3-.41-3.07-1-5.69-1.76-7.86-.77-2.17-1.65-3.84-2.64-5.02-1-1.17-2.08-1.76-3.25-1.76-1.45,0-2.6.81-3.46,2.44-.86,1.63-1.29,3.8-1.29,6.51,0,3.79-.88,6.89-2.64,9.28-1.76,2.4-4.09,3.59-6.98,3.59-2.53,0-4.59-.93-6.17-2.78-1.58-1.85-2.37-4.22-2.37-7.11,0-4.43,1.92-7.97,5.76-10.64,3.84-2.66,8.92-4,15.25-4,4.88,0,9.26.84,13.15,2.51,3.88,1.67,7.18,4.07,9.89,7.18,2.71,3.12,4.79,6.82,6.23,11.11,1.44,4.29,2.17,9.1,2.17,14.43v19.92c0,1.81.38,3.61,1.15,5.42.77,1.81,1.78,3.21,3.05,4.2l-25.34,7.05v-8.4ZM654.57,491.16c-4.61,1.9-8.34,4.81-11.18,8.74-2.85,3.93-4.32,8.2-4.4,12.81,0,3.34.75,6.1,2.24,8.27,1.49,2.17,3.41,3.25,5.76,3.25s4.97-1.04,7.59-3.12v-29.95Z"/>
  <path class="st0" d="M717.82,528.43c3.07,0,5.58-.83,7.52-2.51,1.94-1.67,2.91-3.82,2.91-6.44,0-2.8-1.06-5.13-3.18-6.98-2.12-1.85-4.79-3.52-8-5.01-3.21-1.49-6.66-2.94-10.37-4.34-3.71-1.4-7.16-3.03-10.37-4.88-3.21-1.85-5.88-4.07-8-6.64-2.12-2.58-3.18-5.76-3.18-9.55,0-3.16.79-6.03,2.37-8.61,1.58-2.58,3.8-4.79,6.64-6.64,2.85-1.85,6.28-3.3,10.3-4.34,4.02-1.04,8.52-1.56,13.48-1.56,3.52,0,7.23.27,11.11.81,3.88.54,7.54,1.22,10.98,2.03v16.94c-5.15-5.42-10.35-9.6-15.59-12.54-5.24-2.94-9.58-4.4-13.01-4.4-2.44,0-4.45.74-6.03,2.24-1.58,1.49-2.37,3.41-2.37,5.76,0,2.8,1.1,5.22,3.32,7.25,2.21,2.03,4.99,3.91,8.34,5.62,3.34,1.72,6.93,3.39,10.77,5.01,3.84,1.63,7.43,3.48,10.78,5.56,3.34,2.08,6.12,4.47,8.33,7.18,2.21,2.71,3.32,6.01,3.32,9.89,0,5.88-2.58,10.5-7.73,13.89-5.15,3.39-12.29,5.08-21.41,5.08-2.17,0-4.61-.11-7.32-.34-2.71-.22-5.49-.52-8.33-.88-2.85-.36-5.69-.79-8.54-1.29-2.85-.5-5.58-1.06-8.2-1.7v-17.08c2.44,2.8,5.04,5.33,7.79,7.59,2.75,2.26,5.51,4.2,8.27,5.83,2.76,1.63,5.44,2.87,8.06,3.73,2.62.86,5.06,1.29,7.32,1.29"/>
  <path class="st0" d="M788.27,524.23c-3.44,2.62-6.96,4.66-10.57,6.1-3.61,1.45-7.05,2.17-10.3,2.17-4.43,0-8.06-1.26-10.91-3.79-2.85-2.53-4.27-5.83-4.27-9.89,0-2.98.86-5.96,2.57-8.95,1.72-2.98,4.16-5.78,7.32-8.4,3.16-2.62,6.96-5.04,11.39-7.25,4.43-2.21,9.35-4.13,14.77-5.76-.09-3.79-.34-7.23-.75-10.3-.41-3.07-1-5.69-1.76-7.86-.77-2.17-1.65-3.84-2.64-5.02-1-1.17-2.08-1.76-3.25-1.76-1.45,0-2.6.81-3.46,2.44-.86,1.63-1.29,3.8-1.29,6.51,0,3.79-.88,6.89-2.64,9.28-1.76,2.4-4.09,3.59-6.98,3.59-2.53,0-4.59-.93-6.17-2.78-1.58-1.85-2.37-4.22-2.37-7.11,0-4.43,1.92-7.97,5.76-10.64,3.84-2.66,8.92-4,15.25-4,4.88,0,9.26.84,13.15,2.51,3.88,1.67,7.18,4.07,9.89,7.18,2.71,3.12,4.79,6.82,6.23,11.11,1.44,4.29,2.17,9.1,2.17,14.43v19.92c0,1.81.38,3.61,1.15,5.42.77,1.81,1.78,3.21,3.05,4.2l-25.34,7.05v-8.4ZM788.27,491.16c-4.61,1.9-8.34,4.81-11.18,8.74-2.85,3.93-4.32,8.2-4.4,12.81,0,3.34.75,6.1,2.24,8.27,1.49,2.17,3.41,3.25,5.76,3.25s4.97-1.04,7.59-3.12v-29.95Z"/>
  <path class="st0" d="M857.93,531.27c.81-1.44,1.49-3.34,2.03-5.69.54-2.35.81-4.83.81-7.45v-72.1c0-2.62-.27-5.1-.81-7.45-.54-2.35-1.22-4.25-2.03-5.69h35.51c5.6,0,10.66.61,15.18,1.83,4.52,1.22,8.38,2.98,11.59,5.29,3.21,2.3,5.69,5.11,7.45,8.4,1.76,3.3,2.64,6.98,2.64,11.05,0,6.87-2.33,12.6-6.98,17.21-4.66,4.61-10.96,7.68-18.91,9.22l21.69,32.26c1.8,2.71,3.95,5.2,6.44,7.45,2.48,2.26,4.76,4.16,6.84,5.69h-32.26c-.27-1.44-1.17-3.3-2.71-5.56-1.54-2.26-3.21-4.79-5.01-7.59l-16.13-25.35v25.35c0,2.53.25,4.97.74,7.32.5,2.35,1.15,4.29,1.96,5.83h-28.05ZM883.28,484.24h8.81c4.61,0,8.33-2.14,11.18-6.44,2.85-4.29,4.31-10.1,4.41-17.42,0-3.7-.36-7.07-1.09-10.1-.72-3.03-1.76-5.62-3.12-7.79-1.35-2.17-3.01-3.84-4.95-5.01-1.94-1.17-4.13-1.76-6.57-1.76h-8.67v48.52Z"/>
  <path class="st0" d="M976.01,524.23c-3.44,2.62-6.96,4.66-10.57,6.1-3.61,1.45-7.05,2.17-10.3,2.17-4.43,0-8.07-1.26-10.91-3.79-2.85-2.53-4.27-5.83-4.27-9.89,0-2.98.86-5.96,2.57-8.95,1.72-2.98,4.16-5.78,7.32-8.4,3.16-2.62,6.96-5.04,11.39-7.25,4.43-2.21,9.35-4.13,14.77-5.76-.09-3.79-.34-7.23-.75-10.3-.41-3.07-1-5.69-1.76-7.86-.77-2.17-1.65-3.84-2.64-5.02-.99-1.17-2.08-1.76-3.25-1.76-1.45,0-2.6.81-3.46,2.44-.86,1.63-1.29,3.8-1.29,6.51,0,3.79-.88,6.89-2.64,9.28-1.76,2.4-4.09,3.59-6.98,3.59-2.53,0-4.59-.93-6.17-2.78-1.58-1.85-2.37-4.22-2.37-7.11,0-4.43,1.92-7.97,5.76-10.64,3.84-2.66,8.92-4,15.25-4,4.88,0,9.26.84,13.15,2.51,3.88,1.67,7.18,4.07,9.89,7.18,2.71,3.12,4.79,6.82,6.23,11.11,1.44,4.29,2.17,9.1,2.17,14.43v19.92c0,1.81.38,3.61,1.15,5.42.77,1.81,1.78,3.21,3.05,4.2l-25.34,7.05v-8.4ZM976.01,491.16c-4.61,1.9-8.34,4.81-11.18,8.74-2.85,3.93-4.32,8.2-4.4,12.81,0,3.34.75,6.1,2.24,8.27,1.49,2.17,3.41,3.25,5.76,3.25s4.97-1.04,7.59-3.12v-29.95Z"/>
  <path class="st0" d="M1007.21,531.27c.9-1.44,1.6-3.34,2.1-5.69.49-2.35.74-4.83.74-7.45v-42.15c0-1.81-.38-3.61-1.15-5.42-.77-1.81-1.78-3.21-3.05-4.2l25.34-7.05v9.89c1.99-3.16,4.76-5.6,8.33-7.32,3.57-1.71,7.61-2.58,12.13-2.58,5.15,0,9.49,1.11,13.01,3.32,3.52,2.21,5.96,5.22,7.32,9.01,1.63-3.8,4.38-6.8,8.27-9.01,3.88-2.21,8.4-3.32,13.55-3.32,6.51,0,11.74,1.81,15.72,5.42,3.97,3.61,5.96,8.4,5.96,14.37v39.03c0,2.53.25,4.97.75,7.32.49,2.35,1.15,4.29,1.97,5.83h-26.7c.9-1.44,1.6-3.34,2.1-5.69.5-2.35.74-4.83.74-7.45v-39.03c0-3.16-.95-5.76-2.85-7.79-1.9-2.03-4.47-3.05-7.72-3.05s-5.81,1.02-7.66,3.05c-1.85,2.03-2.78,4.63-2.78,7.79v39.03c0,2.53.25,4.97.74,7.32.5,2.35,1.15,4.29,1.96,5.83h-26.7c.9-1.44,1.6-3.34,2.1-5.69.5-2.35.74-4.83.74-7.45v-39.03c0-3.16-.95-5.76-2.85-7.79-1.9-2.03-4.47-3.05-7.72-3.05s-5.81,1.02-7.66,3.05c-1.85,2.03-2.78,4.63-2.78,7.79v39.03c0,2.53.25,4.97.74,7.32.5,2.35,1.15,4.29,1.96,5.83h-26.7Z"/>
  <path class="st0" d="M1159.59,524.23c-3.44,2.62-6.96,4.66-10.57,6.1-3.61,1.45-7.05,2.17-10.3,2.17-4.43,0-8.06-1.26-10.91-3.79-2.85-2.53-4.27-5.83-4.27-9.89,0-2.98.86-5.96,2.57-8.95,1.71-2.98,4.16-5.78,7.32-8.4,3.16-2.62,6.96-5.04,11.39-7.25,4.43-2.21,9.35-4.13,14.77-5.76-.09-3.79-.34-7.23-.75-10.3-.41-3.07-.99-5.69-1.76-7.86-.77-2.17-1.65-3.84-2.64-5.02-.99-1.17-2.08-1.76-3.25-1.76-1.45,0-2.6.81-3.46,2.44-.86,1.63-1.29,3.8-1.29,6.51,0,3.79-.88,6.89-2.64,9.28-1.76,2.4-4.09,3.59-6.98,3.59-2.53,0-4.59-.93-6.17-2.78-1.58-1.85-2.37-4.22-2.37-7.11,0-4.43,1.92-7.97,5.76-10.64,3.84-2.66,8.92-4,15.25-4,4.88,0,9.26.84,13.15,2.51,3.88,1.67,7.18,4.07,9.89,7.18,2.71,3.12,4.79,6.82,6.23,11.11,1.44,4.29,2.17,9.1,2.17,14.43v19.92c0,1.81.38,3.61,1.15,5.42.77,1.81,1.78,3.21,3.05,4.2l-25.34,7.05v-8.4ZM1159.59,491.16c-4.61,1.9-8.34,4.81-11.18,8.74-2.85,3.93-4.32,8.2-4.4,12.81,0,3.34.74,6.1,2.24,8.27,1.49,2.17,3.41,3.25,5.76,3.25s4.97-1.04,7.59-3.12v-29.95Z"/>
  <path class="st0" d="M1189.15,546.86c1.53,0,3.07.11,4.61.34,1.54.22,3.07.34,4.61.34,1.36,0,2.73-.2,4.13-.61,1.4-.41,2.76-1.2,4.07-2.37,1.31-1.17,2.62-2.83,3.93-4.95,1.31-2.12,2.55-4.9,3.73-8.34v-.14l-25.89-58.96c-.72-1.53-1.9-3.34-3.52-5.42-1.63-2.08-3.48-4.02-5.56-5.83h31.58c-.63,1.45-.88,3.18-.75,5.22.14,2.03.61,4.05,1.42,6.03l13.15,29.41,8.54-24.53c.72-1.99.81-4.45.27-7.39-.54-2.93-1.58-5.85-3.12-8.74h19.65c-3.25,2.26-6.17,4.83-8.74,7.72-2.57,2.89-4.32,5.69-5.22,8.4l-18.84,53.81c-1.9,5.6-4.04,10.66-6.44,15.18-2.4,4.52-4.93,8.38-7.59,11.59-2.67,3.21-5.4,5.69-8.2,7.45-2.8,1.76-5.56,2.64-8.27,2.64-2.98,0-5.47-.97-7.45-2.91-1.99-1.94-2.98-4.4-2.98-7.39,0-3.25,1.2-5.83,3.59-7.73,2.39-1.9,5.49-2.85,9.28-2.85"/>
  <path class="st0" d="M1246.07,506.2c-1.45-5.33-1.88-10.41-1.29-15.25.59-4.83,2.03-9.24,4.34-13.21,2.3-3.97,5.44-7.41,9.42-10.3,3.97-2.89,8.63-5.06,13.96-6.51,1.99-.54,3.91-.93,5.76-1.15,1.85-.22,3.68-.34,5.49-.34,4.07,0,7.95.63,11.66,1.9,3.7,1.27,7.05,3.07,10.03,5.42,2.98,2.35,5.58,5.27,7.79,8.74,2.21,3.48,3.91,7.39,5.08,11.72,1.36,5.33,1.76,10.46,1.22,15.38-.54,4.93-1.96,9.38-4.27,13.35-2.3,3.98-5.42,7.43-9.35,10.37-3.93,2.94-8.56,5.08-13.89,6.44-3.89,1.08-7.68,1.63-11.39,1.63-4.16,0-8.06-.63-11.72-1.9-3.66-1.26-7-3.12-10.03-5.56-3.03-2.44-5.62-5.4-7.79-8.88-2.17-3.48-3.84-7.43-5.01-11.86M1266.27,500.24c1.35,4.97,2.98,9.44,4.88,13.42,1.9,3.98,3.93,7.3,6.1,9.96,2.17,2.67,4.43,4.59,6.78,5.76,2.35,1.17,4.7,1.45,7.05.81,2.26-.63,4.13-2.03,5.62-4.2,1.49-2.17,2.53-4.92,3.12-8.27.59-3.34.72-7.18.41-11.52-.32-4.34-1.15-8.95-2.51-13.83-1.35-4.97-2.96-9.37-4.81-13.21-1.85-3.84-3.86-7.03-6.03-9.56-2.17-2.53-4.43-4.31-6.78-5.35-2.35-1.04-4.7-1.29-7.05-.75-2.26.63-4.11,1.97-5.56,4-1.45,2.03-2.49,4.63-3.12,7.79-.63,3.16-.79,6.87-.47,11.11.32,4.25,1.11,8.86,2.37,13.82"/>
  <path class="st0" d="M1326.25,531.27c.9-1.44,1.6-3.34,2.1-5.69.49-2.35.74-4.83.74-7.45v-42.15c0-1.81-.39-3.61-1.15-5.42-.77-1.81-1.79-3.21-3.05-4.2l25.35-7.05v9.89c1.99-3.16,4.76-5.6,8.33-7.32,3.57-1.71,7.61-2.58,12.13-2.58,6.51,0,11.74,1.81,15.72,5.42,3.98,3.61,5.96,8.4,5.96,14.37v39.03c0,2.53.25,4.97.74,7.32.5,2.35,1.15,4.29,1.96,5.83h-26.7c.9-1.44,1.6-3.34,2.1-5.69.5-2.35.74-4.83.74-7.45v-39.03c0-3.16-.95-5.76-2.85-7.79-1.9-2.03-4.47-3.05-7.73-3.05s-5.81,1.02-7.66,3.05c-1.85,2.03-2.78,4.63-2.78,7.79v39.03c0,2.53.25,4.97.74,7.32.5,2.35,1.15,4.29,1.96,5.83h-26.7Z"/>
  <path class="st0" d="M688.99,607.21h4.38l16.69,40.87h-5.53l-4.84-11.97h-17.15l-4.78,11.97h-5.53l16.75-40.87ZM698.54,632.07l-7.37-18.88-7.6,18.88h14.97Z"/>
  <path class="st0" d="M716.67,648.08v-40.87h17.5c1.8,0,3.46.37,4.98,1.12,1.52.75,2.82,1.75,3.91,2.99,1.09,1.25,1.95,2.65,2.56,4.2.61,1.55.92,3.14.92,4.75,0,1.42-.2,2.79-.61,4.12-.4,1.32-.98,2.52-1.73,3.6-.75,1.08-1.65,2-2.7,2.76-1.06.77-2.24,1.32-3.54,1.67l9.9,15.66h-5.87l-9.33-14.68h-10.82v14.68h-5.18ZM721.86,628.79h12.38c1.08,0,2.04-.23,2.91-.69.86-.46,1.6-1.08,2.22-1.87.61-.79,1.09-1.7,1.44-2.73.35-1.04.52-2.11.52-3.22s-.2-2.23-.6-3.25c-.4-1.02-.94-1.92-1.61-2.71-.67-.79-1.46-1.4-2.36-1.84-.9-.44-1.85-.66-2.85-.66h-12.03v16.98Z"/>
  <polygon class="st0" points="784.77 611.81 770.67 611.81 770.67 648.08 765.49 648.08 765.49 611.81 751.39 611.81 751.39 607.21 784.77 607.21 784.77 611.81"/>
  <polygon class="st0" points="819.54 643.47 819.54 648.08 791.8 648.08 791.8 607.2 819.03 607.2 819.03 611.81 796.98 611.81 796.98 625.05 816.15 625.05 816.15 629.37 796.98 629.37 796.98 643.47 819.54 643.47"/>
  <path class="st0" d="M840.84,627.35c0-2.45.43-4.9,1.29-7.34.86-2.44,2.13-4.62,3.8-6.56,1.67-1.94,3.71-3.5,6.13-4.69,2.42-1.19,5.16-1.78,8.23-1.78,3.65,0,6.77.83,9.38,2.48,2.61,1.65,4.55,3.8,5.81,6.45l-4.09,2.65c-.61-1.3-1.35-2.4-2.22-3.28-.86-.88-1.8-1.59-2.82-2.13-1.02-.54-2.06-.92-3.14-1.15-1.07-.23-2.13-.35-3.17-.35-2.27,0-4.27.47-6.02,1.41-1.75.94-3.21,2.17-4.4,3.68-1.19,1.52-2.08,3.22-2.68,5.12-.6,1.9-.89,3.81-.89,5.73,0,2.15.35,4.19,1.06,6.13.71,1.94,1.7,3.65,2.96,5.15,1.27,1.5,2.76,2.69,4.49,3.57,1.73.88,3.61,1.32,5.64,1.32,1.07,0,2.18-.13,3.31-.4,1.13-.27,2.22-.7,3.25-1.3s2.01-1.34,2.91-2.24c.9-.9,1.64-1.99,2.22-3.25l4.32,2.36c-.65,1.54-1.57,2.89-2.73,4.06-1.17,1.17-2.49,2.16-3.97,2.96-1.48.81-3.04,1.42-4.69,1.84-1.65.42-3.26.63-4.84.63-2.8,0-5.37-.61-7.71-1.84-2.34-1.23-4.37-2.83-6.07-4.81-1.71-1.98-3.03-4.22-3.97-6.73-.94-2.51-1.41-5.08-1.41-7.69"/>
  <path class="st0" d="M900.02,648.36c-2.88,0-5.5-.58-7.86-1.76-2.36-1.17-4.39-2.73-6.07-4.66-1.69-1.94-2.99-4.15-3.91-6.65-.92-2.49-1.38-5.05-1.38-7.66s.49-5.33,1.47-7.83c.98-2.49,2.33-4.7,4.06-6.62,1.73-1.92,3.77-3.44,6.13-4.58,2.36-1.13,4.92-1.7,7.68-1.7s5.49.6,7.83,1.81c2.34,1.21,4.36,2.79,6.05,4.75,1.69,1.96,2.99,4.17,3.91,6.65.92,2.48,1.38,5,1.38,7.57,0,2.73-.49,5.34-1.47,7.83-.98,2.5-2.32,4.69-4.03,6.59-1.71,1.9-3.74,3.42-6.1,4.55-2.36,1.13-4.92,1.7-7.68,1.7M886.03,627.64c0,2.07.34,4.08,1.01,6.02.67,1.94,1.62,3.66,2.85,5.15,1.23,1.5,2.7,2.69,4.43,3.57,1.73.88,3.65,1.32,5.76,1.32s4.15-.47,5.87-1.41c1.73-.94,3.19-2.17,4.4-3.68,1.21-1.52,2.13-3.23,2.76-5.15.63-1.92.95-3.86.95-5.81,0-2.07-.34-4.08-1.01-6.02-.67-1.94-1.63-3.64-2.88-5.12-1.25-1.48-2.73-2.66-4.43-3.54-1.71-.88-3.6-1.32-5.67-1.32-2.19,0-4.15.46-5.87,1.38-1.73.92-3.2,2.13-4.4,3.63-1.21,1.5-2.14,3.21-2.79,5.12-.65,1.92-.98,3.88-.98,5.87"/>
  <polygon class="st0" points="932.83 616.88 932.83 648.08 927.65 648.08 927.65 607.2 931.68 607.2 957.01 639.04 957.01 607.26 962.19 607.26 962.19 648.08 957.81 648.08 932.83 616.88"/>
  <polygon class="st0" points="1021.71 607.2 1021.71 648.08 1016.53 648.08 1016.53 629.48 994.02 629.48 994.02 648.08 988.84 648.08 988.84 607.2 994.02 607.2 994.02 624.88 1016.53 624.88 1016.53 607.2 1021.71 607.2"/>
  <rect class="st0" x="1032.65" y="607.2" width="5.18" height="40.87"/>
  <path class="st0" d="M1072.77,615.78c-.46-.54-1.08-1.05-1.84-1.55-.77-.5-1.63-.95-2.59-1.35-.96-.4-2.01-.73-3.14-.98-1.13-.25-2.31-.37-3.54-.37-3.18,0-5.52.6-6.99,1.79-1.48,1.19-2.22,2.82-2.22,4.89,0,1.11.21,2.03.63,2.76.42.73,1.08,1.35,1.99,1.87.9.52,2.02.97,3.37,1.35,1.34.38,2.94.79,4.78,1.21,2.11.46,4.02.99,5.73,1.58,1.71.6,3.17,1.33,4.38,2.22,1.21.88,2.13,1.96,2.76,3.22.63,1.27.95,2.82.95,4.66,0,1.96-.38,3.65-1.15,5.1-.77,1.44-1.81,2.63-3.14,3.57-1.32.94-2.89,1.63-4.69,2.07-1.8.44-3.76.66-5.87.66-3.15,0-6.13-.49-8.95-1.47-2.82-.98-5.38-2.41-7.68-4.29l2.47-4.38c.61.65,1.41,1.31,2.39,1.96.98.65,2.09,1.24,3.34,1.76,1.25.52,2.59.94,4.03,1.27,1.44.33,2.94.49,4.52.49,2.92,0,5.18-.52,6.79-1.55,1.61-1.04,2.42-2.59,2.42-4.66,0-1.15-.26-2.12-.78-2.91-.52-.79-1.28-1.47-2.27-2.04-1-.58-2.24-1.08-3.71-1.53-1.48-.44-3.16-.89-5.04-1.35-2.07-.5-3.9-1.04-5.47-1.61-1.57-.57-2.89-1.27-3.94-2.07-1.06-.81-1.85-1.79-2.39-2.94-.54-1.15-.81-2.53-.81-4.14,0-1.96.36-3.69,1.09-5.18.73-1.5,1.75-2.76,3.05-3.8,1.3-1.04,2.86-1.81,4.66-2.33,1.8-.52,3.76-.78,5.87-.78,2.76,0,5.26.42,7.48,1.27,2.23.85,4.2,1.98,5.93,3.4l-2.42,4.2Z"/>
  <polygon class="st0" points="1114.45 611.81 1100.34 611.81 1100.34 648.08 1095.16 648.08 1095.16 611.81 1081.06 611.81 1081.06 607.21 1114.45 607.21 1114.45 611.81"/>
  <path class="st0" d="M1136.84,648.36c-2.88,0-5.5-.58-7.86-1.76s-4.39-2.73-6.07-4.66c-1.69-1.94-2.99-4.15-3.91-6.65-.92-2.49-1.38-5.05-1.38-7.66s.49-5.33,1.47-7.83c.98-2.49,2.33-4.7,4.06-6.62,1.73-1.92,3.77-3.44,6.13-4.58,2.36-1.13,4.92-1.7,7.68-1.7s5.49.6,7.83,1.81c2.34,1.21,4.35,2.79,6.04,4.75,1.69,1.96,2.99,4.17,3.91,6.65.92,2.48,1.38,5,1.38,7.57,0,2.73-.49,5.34-1.47,7.83-.98,2.5-2.32,4.69-4.03,6.59-1.71,1.9-3.74,3.42-6.1,4.55-2.36,1.13-4.92,1.7-7.69,1.7M1122.85,627.64c0,2.07.34,4.08,1.01,6.02.67,1.94,1.62,3.66,2.85,5.15,1.23,1.5,2.71,2.69,4.43,3.57,1.73.88,3.65,1.32,5.76,1.32s4.15-.47,5.87-1.41c1.73-.94,3.19-2.17,4.4-3.68,1.21-1.52,2.13-3.23,2.76-5.15.63-1.92.95-3.86.95-5.81,0-2.07-.34-4.08-1.01-6.02-.67-1.94-1.63-3.64-2.88-5.12-1.25-1.48-2.72-2.66-4.43-3.54-1.71-.88-3.6-1.32-5.67-1.32-2.19,0-4.14.46-5.87,1.38-1.73.92-3.19,2.13-4.4,3.63-1.21,1.5-2.14,3.21-2.79,5.12-.65,1.92-.98,3.88-.98,5.87"/>
  <path class="st0" d="M1164.47,648.08v-40.87h17.5c1.8,0,3.46.37,4.98,1.12,1.52.75,2.82,1.75,3.91,2.99,1.09,1.25,1.95,2.65,2.56,4.2.61,1.55.92,3.14.92,4.75,0,1.42-.2,2.79-.6,4.12s-.98,2.52-1.73,3.6c-.75,1.08-1.65,2-2.7,2.76-1.06.77-2.24,1.32-3.54,1.67l9.9,15.66h-5.87l-9.33-14.68h-10.82v14.68h-5.18ZM1169.65,628.79h12.38c1.07,0,2.04-.23,2.91-.69.86-.46,1.6-1.08,2.22-1.87.61-.79,1.09-1.7,1.44-2.73.34-1.04.52-2.11.52-3.22s-.2-2.23-.6-3.25c-.4-1.02-.94-1.92-1.61-2.71-.67-.79-1.46-1.4-2.36-1.84-.9-.44-1.85-.66-2.85-.66h-12.03v16.98Z"/>
  <rect class="st0" x="1203.44" y="607.2" width="5.18" height="40.87"/>
  <path class="st0" d="M1231.99,607.21h4.38l16.69,40.87h-5.53l-4.84-11.97h-17.15l-4.78,11.97h-5.53l16.75-40.87ZM1241.55,632.07l-7.37-18.88-7.6,18.88h14.97Z"/>
</svg>